<?xml version="1.0" standalone="no"?>
<!DOCTYPE svg PUBLIC "-//W3C//DTD SVG 20010904//EN"
 "http://www.w3.org/TR/2001/REC-SVG-20010904/DTD/svg10.dtd">
<svg version="1.0" xmlns="http://www.w3.org/2000/svg"
 width="128.000000pt" height="128.000000pt" viewBox="0 0 128.000000 128.000000"
 preserveAspectRatio="xMidYMid meet">

<g transform="translate(0.000000,128.000000) scale(0.100000,-0.100000)"
fill="#ffff" stroke="none">
<path d="M0 1248 c0 -32 0 -32 15 -11 9 13 23 27 33 32 14 9 11 10 -15 11 -31
0 -33 -2 -33 -32z"/>
<path d="M1232 1269 c10 -5 24 -19 33 -32 15 -21 15 -21 15 11 0 30 -2 32 -32
32 -27 -1 -30 -2 -16 -11z"/>
<path d="M52 1228 c-7 -7 -12 -43 -12 -90 l0 -78 600 0 600 0 0 78 c0 47 -5
83 -12 90 -17 17 -1159 17 -1176 0z m126 -41 c15 -12 16 -59 0 -75 -37 -37
-113 12 -89 57 21 38 54 45 89 18z m140 0 c15 -12 16 -59 0 -75 -37 -37 -113
12 -89 57 21 38 54 45 89 18z m140 0 c15 -12 16 -59 0 -75 -37 -37 -113 12
-89 57 21 38 54 45 89 18z"/>
<path d="M125 1160 c-8 -13 4 -32 16 -25 12 8 12 35 0 35 -6 0 -13 -4 -16 -10z"/>
<path d="M265 1160 c-8 -13 4 -32 16 -25 12 8 12 35 0 35 -6 0 -13 -4 -16 -10z"/>
<path d="M405 1160 c-8 -13 4 -32 16 -25 12 8 12 35 0 35 -6 0 -13 -4 -16 -10z"/>
<path d="M40 710 l0 -310 315 0 314 0 3 58 c3 48 7 59 26 67 12 5 22 17 22 25
0 8 -10 20 -22 25 -20 9 -23 19 -26 77 -4 87 0 89 165 86 112 -3 128 -5 131
-20 3 -16 -8 -18 -127 -18 l-131 0 0 -45 0 -45 235 0 235 0 0 45 0 45 -58 0
c-64 0 -78 6 -61 27 14 16 102 18 130 3 16 -9 19 -22 19 -80 0 -66 -1 -70 -25
-76 -32 -8 -34 -41 -2 -46 20 -3 22 -9 25 -65 2 -47 7 -63 17 -63 13 0 15 46
15 310 l0 310 -600 0 -600 0 0 -310z m136 239 c3 -6 -6 -23 -20 -38 l-26 -27
25 -24 c14 -13 25 -29 25 -37 0 -25 -38 -13 -70 23 l-32 37 38 38 c40 41 49
45 60 28z m94 -6 c0 -10 -10 -43 -22 -75 -16 -40 -28 -58 -40 -58 -23 0 -23 2
9 82 24 63 53 90 53 51z m75 -23 l39 -40 -36 -37 c-25 -25 -41 -34 -54 -29
-15 6 -14 10 11 36 l29 30 -28 29 c-25 26 -29 51 -7 51 4 0 25 -18 46 -40z
m164 -23 c16 -20 4 -27 -44 -27 -23 0 -45 3 -48 7 -13 13 16 33 48 33 18 0 38
-6 44 -13z m469 -9 c3 -17 -12 -18 -207 -18 -143 0 -212 4 -217 11 -14 24 28
29 221 26 181 -2 200 -4 203 -19z m-393 -83 c0 -11 -138 -20 -162 -11 -8 3
-11 11 -8 16 9 14 170 9 170 -5z m115 0 c0 -11 -12 -15 -45 -15 -33 0 -45 4
-45 15 0 11 12 15 45 15 33 0 45 -4 45 -15z m220 0 c0 -12 -17 -15 -95 -15
-78 0 -95 3 -95 15 0 12 17 15 95 15 78 0 95 -3 95 -15z m-665 -90 c0 -11
-129 -20 -152 -11 -8 3 -11 11 -8 16 9 14 160 9 160 -5z m288 0 c1 -6 -47 -11
-125 -13 -111 -2 -128 0 -128 13 0 13 17 15 125 13 73 -2 126 -7 128 -13z
m315 -62 c-3 -15 -14 -18 -58 -18 -44 0 -55 3 -58 18 -3 15 5 17 58 17 53 0
61 -2 58 -17z m96 8 c9 -15 -22 -33 -44 -26 -31 10 -25 35 9 35 17 0 32 -4 35
-9z m189 2 c18 -17 -19 -33 -77 -33 -64 0 -93 10 -82 29 8 12 148 16 159 4z
m-963 -28 c0 -11 -11 -15 -39 -15 -38 0 -57 10 -44 24 3 3 24 6 45 6 27 0 38
-4 38 -15z m230 0 c0 -12 -17 -15 -94 -15 -87 0 -116 7 -99 24 3 3 48 6 100 6
76 0 93 -3 93 -15z m100 0 c0 -16 -55 -22 -64 -6 -8 13 5 21 36 21 18 0 28 -5
28 -15z m120 0 c0 -11 -12 -15 -44 -15 -43 0 -63 10 -49 24 3 3 26 6 50 6 32
0 43 -4 43 -15z m-411 -64 c26 -17 -1 -31 -58 -31 -63 0 -77 6 -60 27 13 15
96 18 118 4z m189 -13 c3 -16 -6 -18 -77 -18 -61 0 -81 3 -81 13 0 24 13 28
84 25 58 -2 71 -6 74 -20z m230 0 c3 -16 -7 -18 -97 -18 -78 0 -101 3 -101 13
0 25 13 28 104 25 77 -3 91 -6 94 -20z"/>
<path d="M760 550 c0 -20 5 -20 182 -18 165 3 183 5 186 21 3 16 -11 17 -182
17 -180 0 -186 -1 -186 -20z"/>
<path d="M710 445 l0 -45 233 2 232 3 3 43 3 42 -235 0 -236 0 0 -45z m148 3
c3 -16 -5 -18 -57 -18 -44 0 -61 4 -61 13 0 23 13 28 65 25 38 -2 51 -7 53
-20z m95 8 c7 -18 -1 -26 -29 -26 -25 0 -39 14 -29 30 9 15 52 12 58 -4z m192
-6 c0 -12 -16 -16 -74 -18 -73 -3 -100 6 -86 28 4 7 34 10 83 8 61 -2 77 -6
77 -18z"/>
<path d="M760 350 c0 -19 6 -20 186 -20 171 0 185 1 182 18 -3 15 -21 17 -186
20 -177 2 -182 2 -182 -18z"/>
<path d="M40 310 c0 -58 14 -70 84 -70 34 0 46 -4 46 -15 0 -12 -13 -15 -60
-15 -51 0 -65 4 -85 25 l-25 24 0 -129 0 -130 172 0 c134 0 169 3 160 12 -7 7
-12 27 -12 45 0 49 37 83 90 83 41 0 41 1 38 33 l-3 32 -97 3 c-78 2 -98 6
-98 17 0 13 32 15 209 15 l210 0 3 38 c2 27 9 40 26 47 12 5 22 15 22 22 0 10
-73 13 -340 13 l-340 0 0 -50z"/>
<path d="M1160 347 c0 -7 10 -17 23 -22 15 -7 23 -20 25 -42 6 -63 32 -32 32
38 0 39 0 39 -40 39 -26 0 -40 -5 -40 -13z"/>
<path d="M710 245 l0 -45 235 0 235 0 0 45 0 45 -235 0 -235 0 0 -45z m150 0
c0 -12 -13 -15 -60 -15 -47 0 -60 3 -60 15 0 12 13 15 60 15 47 0 60 -3 60
-15z m95 0 c0 -5 -15 -11 -32 -13 -25 -3 -33 1 -33 13 0 12 8 16 33 13 17 -2
32 -7 32 -13z m190 0 c0 -11 -129 -20 -152 -11 -8 3 -11 11 -8 16 9 14 160 9
160 -5z"/>
<path d="M1270 259 c0 -6 -20 -30 -44 -55 l-44 -44 -176 0 c-111 0 -176 -4
-176 -10 0 -5 17 -10 38 -10 21 0 47 -7 59 -15 27 -19 41 -80 24 -107 -11 -17
-4 -18 159 -18 l170 0 0 135 c0 74 -2 135 -5 135 -3 0 -5 -5 -5 -11z"/>
<path d="M487 203 c-4 -3 -7 -19 -7 -35 l0 -28 155 0 c97 0 155 4 155 10 0 6
-22 10 -50 10 -42 0 -52 4 -66 25 -15 23 -22 25 -98 25 -46 0 -86 -3 -89 -7z"/>
<path d="M367 93 c-4 -3 -7 -17 -7 -30 l0 -23 280 0 c296 0 291 -1 274 44 -5
14 -39 16 -273 16 -147 0 -271 -3 -274 -7z"/>
</g>
</svg>
